<svg id="Logo" xmlns="http://www.w3.org/2000/svg" viewBox="0 0 1053.53 184.73"><defs><style>.cls-1{fill:#ec0000;}</style></defs><title>logo-santander-pos</title><path class="cls-1" d="M139.16,84.6a42,42,0,0,0-5.6-19.23l-30.4-52.65A42.08,42.08,0,0,1,98.35,0L97.08,2.2a42.14,42.14,0,0,0,0,42.12L121.4,86.45a42.14,42.14,0,0,1,0,42.12l-1.28,2.2a41.44,41.44,0,0,0-4.8-12.72L93.06,79.48,78.85,54.86a41.75,41.75,0,0,1-4.8-12.73l-1.28,2.2a42.13,42.13,0,0,0-.08,42h0l24.4,42.25a42.14,42.14,0,0,1,0,42.12l-1.27,2.21A42,42,0,0,0,91,160.17L60.6,107.52A42.16,42.16,0,0,1,55,84.63c-32.54,8.5-55,26.55-55,47.46,0,29.07,43.46,52.64,97.08,52.64s97.08-23.57,97.08-52.64C194.17,111.17,171.7,93.11,139.16,84.6Zm144,23.49-9.83-4.19C260.59,98.44,253.49,93,253.49,83.52c0-9.65,7.28-15.83,23.11-15.83A92.25,92.25,0,0,1,306.44,73a70.68,70.68,0,0,0,3.64-18.2,99.47,99.47,0,0,0-33.3-5.28c-29.47,0-43.85,13.28-43.85,34,0,19.28,11.65,28.93,28.76,36.39l9.27,4c17.11,7.46,24,12.36,24,22.93,0,10.73-9.45,16.19-26.38,16.19-10,0-23.11-2.37-33.3-7.1a60.92,60.92,0,0,0-3.43,18.37c10.15,4.77,22.38,7,37.31,7,30.92,0,46.76-14.38,46.76-35.3,0-17.7-9.65-28.07-32.75-37.88Zm45.31,24.37c0,30.57,16,48,40,48,12.74,0,20.56-5.1,25.66-13.1l1.1,10.92h18.38v-91c-10.55-3.65-21.29-5.1-34.4-5.1-33.64.09-50.73,18.26-50.73,50.28Zm65.13,25.11a31.37,31.37,0,0,1-19.47,6.55c-17.83,0-25.28-13.1-25.28-31.66,0-20.38,9.64-33.12,30.38-33.12a81.45,81.45,0,0,1,14.38,1.1v57.13Zm78.25-75.3c-9.65,0-23.65,2-36.39,5.1v91h20V100.81a98.83,98.83,0,0,1,15.83-1.46c20,0,24.75,6.92,24.75,21.3v57.68h20V117.19C516.06,95.17,505.33,82.27,471.85,82.27Zm114.09,20.2a153.64,153.64,0,0,0,1.81-17.11H556.09V50.94a69.48,69.48,0,0,0-20,2.91v95.52c0,22.2,12.38,31.11,31.84,31.11a45.3,45.3,0,0,0,16.93-2.91c1.09-5.28,1.82-11.46,2.37-16.92a45.63,45.63,0,0,1-15.65,2.73c-9.65,0-15.47-4.55-15.47-16.38V102.42H586Zm7.81,30c0,30.57,16,48,40,48,12.74,0,20.56-5.1,25.66-13.1l1.09,10.92h18.39v-91c-10.55-3.65-21.3-5.1-34.4-5.1-33.63.08-50.74,18.25-50.74,50.27Zm65.15,25.1a31.37,31.37,0,0,1-19.47,6.55c-17.82,0-25.28-13.1-25.28-31.66,0-20.38,9.65-33.12,30.39-33.12a81.41,81.41,0,0,1,14.37,1.1v57.13Zm78.23-75.3c-9.65,0-23.65,2-36.39,5.1v91h20V100.81a98.83,98.83,0,0,1,15.83-1.46c20,0,24.75,6.92,24.75,21.3v57.68h20V117.19C781.35,95.17,770.62,82.27,737.13,82.27Zm125.92,1.45a78.67,78.67,0,0,0-14.92-1.45c-33.66,0-50.76,18.2-50.76,50.21,0,30.57,16,48,40,48,13.1,0,20.92-5.28,26-13.83l1.1,11.65h18.38V51c-6.54,0-13.64.54-19.84,2.73Zm0,73.51a32.09,32.09,0,0,1-20,6.91c-17.83,0-25.28-13.1-25.28-31.66,0-20.74,9.45-33.12,29.29-33.12a80.48,80.48,0,0,1,16,1.82Zm80.6-75c-31.84,0-44.39,21.47-44.39,48.57,0,31.11,16.2,49.68,49.68,49.68,10.73,0,20.37-1.64,29.47-5.83,1.27-6,2.37-12.92,3.09-18.19a78.12,78.12,0,0,1-32,6.92c-17.83,0-27.3-7.82-29.85-24H983.5a106.7,106.7,0,0,0,1.09-15.47c0-22.92-12.38-41.64-40.94-41.64Zm-24.38,40.39C920.9,107.15,928.36,99,942.56,99c13.82,0,21.83,8.74,21.83,23.65Zm82.61-35.31v91h20V100.44a99.67,99.67,0,0,1,14.74-1.1,128.89,128.89,0,0,1,15.09.73c1.1-3.82,1.82-11.1,1.82-17.1a164.42,164.42,0,0,0-17.47-.74c-11.26,0-25.63,2.19-34.18,5.1Z"/></svg>