<?xml version="1.0" encoding="UTF-8"?>
<svg width="100px" height="16px" viewBox="0 0 100 16" version="1.1" xmlns="http://www.w3.org/2000/svg" xmlns:xlink="http://www.w3.org/1999/xlink">
    <!-- Generator: sketchtool 63.1 (101010) - https://sketch.com -->
    <title>A58822A0-D618-45D7-967D-7B05AA428359</title>
    <desc>Created with sketchtool.</desc>
    <g id="vd_6" stroke="none" stroke-width="1" fill="none" fill-rule="evenodd">
        <g id="login_filled" transform="translate(-115.000000, -44.000000)" fill="#A6A8AB">
            <g id="01---UI-/-Header-/-Desktop-Copy">
                <g id="Branding-/-Logo-/-Empresas" transform="translate(115.000000, 44.000000)">
                    <path d="M60,3.49157333 C62.276087,3.49157333 63.8108696,5.34277333 63.8108696,7.90330667 C63.8108696,11.00784 61.9233696,12.6051733 59.7777174,12.6051733 C58.5016304,12.6051733 57.3728261,12.0425067 56.7619565,10.9891733 L56.725,10.9891733 L56.725,15.99984 L55.8369565,15.99984 L55.8369565,6.46864 C55.8369565,5.37957333 55.8184783,4.52624 55.7630435,3.69104 L56.6146739,3.69104 L56.6690217,5.34277333 L56.7065217,5.34277333 C57.3538043,4.19984 58.4451087,3.49157333 60,3.49157333 Z M15.9977717,2.94352 C19.1368871,2.94352 20.2720416,4.66154469 20.3326836,6.7904653 L20.3352717,6.97392 L20.3352717,12.4181867 L17.9591848,12.4181867 L17.6407065,11.4624533 L17.6108152,11.4624533 C16.9722283,12.2032533 15.9222283,12.64592 14.677663,12.64592 C12.59125,12.64592 11.4597283,11.2309867 11.4597283,9.82938667 C11.4597283,7.51331649 13.6758207,6.30862656 17.2847302,6.26159554 L17.5803804,6.26032 L17.5803804,6.16058667 C17.5803804,5.72912 17.2205978,4.87685333 15.5113587,4.88112 C14.5752627,4.88112 13.5437221,5.17689778 12.8705173,5.52649068 L12.6961413,5.62298667 L12.1488587,3.81338667 C12.8727717,3.40005333 14.2091848,2.94352 15.9977717,2.94352 Z M8.49190217,0.133066667 L8.49190217,3.20666667 L10.3016848,3.20666667 L10.3016848,5.30853333 L8.49190217,5.30853333 L8.49190217,8.5688 C8.49190217,9.6984 8.72668478,10.3144 9.73918478,10.3144 C10.0299457,10.3144 10.2549457,10.2706667 10.3342935,10.2344 L10.3342935,10.2344 L10.3342935,12.3741333 C9.94733696,12.5186667 9.61038043,12.6456 8.75168478,12.6456 C7.7511413,12.6456 6.92722826,12.2797333 6.45820652,11.7837333 C5.91092391,11.2194667 5.65820652,10.2888 5.65820652,9.05093333 L5.65820652,9.05093333 L5.65820652,5.30853333 L4.32777174,5.30853333 L4.32777174,3.20666667 L5.65820652,3.20666667 L5.65820652,0.133066667 L8.49190217,0.133066667 Z M24.8314674,3.20661333 L24.8314674,8.08021333 C24.8314674,9.51648 25.3515761,10.3767467 26.5434239,10.3767467 C27.492337,10.3767467 28.0678804,9.74848 28.3015761,9.19488 C28.3711413,9.01994667 28.3994022,8.82688 28.3994022,8.61034667 L28.3994022,8.61034667 L28.3994022,3.21354667 L31.2879891,3.21354667 L31.2879891,12.4178133 L28.9782065,12.4178133 L28.6102717,11.11168 C28.5146196,11.2503467 28.3814674,11.4087467 28.2119022,11.5842133 C28.042337,11.7634133 27.8320109,11.92608 27.5803804,12.0770133 C27.329837,12.2295467 27.0292935,12.35808 26.6836413,12.4658133 C26.3347283,12.57408 25.9385326,12.62688 25.4896196,12.62688 C24.9722283,12.62688 24.4994022,12.55168 24.0722283,12.4002133 C23.6439674,12.2471467 23.2760326,12.0087467 22.9695109,11.6802133 C22.6635326,11.35328 22.4227717,10.9346133 22.2461413,10.4311467 C22.0684239,9.92448 21.9809239,9.31221333 21.9809239,8.59114667 L21.9809239,8.59114667 L21.9809239,3.20661333 L24.8314674,3.20661333 Z M89.0410326,3.49130667 C91.6138587,3.49130667 92.1127717,5.37984 92.1127717,6.92277333 L92.1127717,10.3361067 C92.1127717,11.0257067 92.13125,11.7339733 92.242663,12.40544 L91.4285326,12.40544 L91.2980978,11.15264 L91.2616848,11.15264 C90.817663,11.82464 89.8372283,12.60544 88.4122283,12.60544 C86.6182065,12.60544 85.8035326,11.3713067 85.8035326,10.20864 C85.8035326,8.19370667 87.5986413,6.97664 91.2247283,7.01397333 L91.2247283,6.77770667 C91.2247283,5.92384 91.0578804,4.19957333 88.9491848,4.21717333 C88.1720109,4.21717333 87.3578804,4.41717333 86.7111413,4.87210667 L86.4334239,4.23584 C87.2470109,3.70944 88.2464674,3.49130667 89.0410326,3.49130667 Z M97.2971739,3.49157333 C98.1118478,3.49157333 98.8145652,3.72730667 99.2580435,4.03664 L98.9248913,4.74437333 C98.6107609,4.52624 98.0373913,4.21744 97.1493478,4.21744 C96.0205435,4.21744 95.4286957,4.92570667 95.4286957,5.72464 C95.4286957,6.63237333 96.0569565,7.01370667 97.2602174,7.50330667 C98.7031522,8.06650667 99.5553261,8.77424 99.5553261,10.1001067 C99.5553261,11.58864 98.3705435,12.5881067 96.5575,12.5881067 C95.706413,12.5881067 94.8922826,12.3513067 94.3009783,11.9875733 L94.6140217,11.26224 C95.0955435,11.5523733 95.8178261,11.86064 96.6129348,11.86064 C98.0194565,11.86064 98.6846739,11.11664 98.6846739,10.2089067 C98.6846739,9.24677333 98.0922826,8.73797333 96.8167391,8.23024 C95.3547826,7.68517333 94.558587,6.90544 94.558587,5.85210667 C94.558587,4.58064 95.5770652,3.49157333 97.2971739,3.49157333 Z M73.956087,3.49146667 C76.8604348,3.49146667 77.4158696,6.17893333 77.4158696,7.4312 C77.4158696,7.66746667 77.4158696,7.7944 77.378913,7.95706667 L70.828913,7.95706667 C70.828913,10.7352 72.3832609,11.8429333 74.2147826,11.8429333 C75.5098913,11.8429333 76.1756522,11.5890667 76.6745652,11.3522667 L76.8968478,12.0248 C76.5642391,12.2061333 75.6571739,12.588 74.1033696,12.588 C71.5506522,12.588 69.9588043,10.7709333 69.9588043,8.212 C69.9588043,5.30693333 71.6615217,3.49146667 73.956087,3.49146667 Z M81.9901087,3.49157333 C82.8042391,3.49157333 83.5069565,3.72730667 83.9515217,4.03664 L83.6172826,4.74437333 C83.3031522,4.52624 82.7292391,4.21744 81.8417391,4.21744 C80.7123913,4.21744 80.121087,4.92570667 80.121087,5.72464 C80.121087,6.63237333 80.7498913,7.01370667 81.9526087,7.50330667 C83.3955435,8.06650667 84.2466304,8.77424 84.2466304,10.1001067 C84.2466304,11.58864 83.0623913,12.5881067 81.2488043,12.5881067 C80.3993478,12.5881067 79.5846739,12.3513067 78.9928261,11.9875733 L79.306413,11.26224 C79.7884783,11.5523733 80.5102174,11.86064 81.3053261,11.86064 C82.7118478,11.86064 83.3770652,11.11664 83.3770652,10.2089067 C83.3770652,9.24677333 82.7846739,8.73797333 81.508587,8.23024 C80.0471739,7.68517333 79.2515217,6.90544 79.2515217,5.85210667 C79.2515217,4.58064 80.2694565,3.49157333 81.9901087,3.49157333 Z M2.91902174,0.1328 L2.91902174,12.4176 L1.87724232e-13,12.4176 L1.87724232e-13,0.1328 L2.91902174,0.1328 Z M68.7722283,3.49157333 C68.9015761,3.49157333 69.0320109,3.50864 69.142337,3.52784 L69.142337,4.34437333 C69.0129891,4.32677333 68.8830978,4.32677333 68.7167935,4.32677333 C67.4961413,4.32677333 66.6260326,5.36144 66.3863587,6.76037333 C66.3309239,7.01370667 66.3119022,7.30384 66.3119022,7.59450667 L66.3119022,12.4057067 L65.4238587,12.4057067 L65.4238587,6.30597333 C65.4238587,5.43344 65.404837,4.54437333 65.3499457,3.69104 L66.1629891,3.69104 L66.2010326,5.45264 L66.2559239,5.45264 C66.6450543,4.34437333 67.5695109,3.49157333 68.7722283,3.49157333 Z M39.4945652,0.168746667 L39.4945652,0.894613333 L34.2217391,0.894613333 L34.2217391,5.59754667 L39.1983696,5.59754667 L39.1983696,6.32394667 L34.2217391,6.32394667 L34.2217391,11.6791467 L39.7907609,11.6791467 L39.7907609,12.4055467 L33.3336957,12.4055467 L33.3336957,0.168746667 L39.4945652,0.168746667 Z M50.6706522,3.4912 C51.5396739,3.4912 53.575,3.9632 53.575,7.26826667 L53.575,12.4053333 L52.6869565,12.4053333 L52.6869565,7.3408 C52.6869565,5.37973333 51.9097826,4.21706667 50.3744565,4.21706667 C49.2646739,4.21706667 48.3945652,5.03466667 48.0434783,5.9424 C47.9701087,6.19573333 47.8951087,6.48746667 47.8951087,6.81386667 L47.8951087,12.4053333 L47.0065217,12.4053333 L47.0065217,6.94133333 C47.0065217,5.37973333 46.248913,4.21706667 44.8048913,4.21706667 C43.6217391,4.21706667 42.6782609,5.1616 42.3445652,6.1792 C42.2706522,6.43253333 42.2163043,6.72266667 42.2163043,7.032 L42.2163043,12.4053333 L41.3277174,12.4053333 L41.3277174,5.7792 C41.3277174,4.98026667 41.3086957,4.3808 41.2532609,3.69066667 L42.086413,3.69066667 L42.1413043,5.216 L42.1777174,5.216 C42.7521739,4.21706667 43.6032609,3.4912 45.0646739,3.4912 C46.2858696,3.4912 47.2293478,4.29066667 47.6179348,5.37973333 L47.6554348,5.37973333 C47.8951087,4.872 48.2282609,4.47146667 48.5619565,4.2 C49.1347826,3.7456 49.7271739,3.4912 50.6706522,3.4912 Z M59.7961957,4.21744 C58.5016304,4.21744 57.2434783,5.08837333 56.8543478,6.52304 L56.7848696,6.81978667 C56.7516087,6.97191467 56.725,7.12634667 56.725,7.26810667 L56.725,8.97477333 C56.725,9.21050667 56.7434783,9.44624 56.798913,9.66384 C57.1684783,11.00784 58.3527174,11.87984 59.7222826,11.87984 C61.7576087,11.87984 62.9228261,10.26384 62.9228261,7.93957333 C62.9228261,5.97904 61.8130435,4.21744 59.7961957,4.21744 Z M86.7290761,10.0635733 C86.7290761,11.3163733 87.5807065,11.8795733 88.505163,11.8795733 C89.9850543,11.8795733 90.8361413,10.98944 91.1317935,10.1355733 C91.2057065,9.95477333 91.2247283,9.75530667 91.2247283,9.60917333 L91.2247283,7.73930667 C89.282337,7.68544 86.7290761,7.97610667 86.7290761,10.0635733 Z M17.665163,8.04485333 C17.4657065,8.04272 17.2744022,8.04485333 17.0879891,8.05125333 C16.7782065,8.06245333 16.4890761,8.08698667 16.2265761,8.12698667 C15.102663,8.29765333 14.3472283,8.74352 14.3472283,9.61072 C14.3472283,10.3845867 14.8999457,10.7936533 15.70375,10.7936533 C16.6244022,10.7936533 17.3097283,10.22832 17.567337,9.62618667 C17.5760326,9.61285333 17.5814674,9.59738667 17.5874457,9.58085333 C17.5928804,9.56805333 17.6129891,9.50352 17.617337,9.48432 C17.6394384,9.38298667 17.6533273,9.27549037 17.6601308,9.17162864 L17.665163,9.01978667 L17.665163,8.04485333 Z M73.8452174,4.21733333 C71.8843478,4.21733333 71.0506522,5.924 70.8848913,7.268 L76.4903261,7.268 C76.5088043,6.05146667 75.9903261,4.21733333 73.8452174,4.21733333 Z M30.0790761,0.132586667 L27.5975543,2.61578667 L25.5627717,2.61578667 L27.3214674,0.132586667 L30.0790761,0.132586667 Z" id="Combined-Shape"></path>
                </g>
            </g>
        </g>
    </g>
</svg>