<svg xmlns="http://www.w3.org/2000/svg" width="50" height="50" viewBox="0 0 50 50">
    <g fill="none">
        <path fill="#039" d="M8.314 0h33.24c4.59 0 8.314 3.724 8.314 8.314v33.255c0 4.59-3.724 8.314-8.314 8.314H8.314C3.71 49.883 0 46.158 0 41.569V8.314C0 3.724 3.71 0 8.314 0z" transform="translate(.015 .015)"/>
        <path fill="#FF0" d="M25.41 28.739c4.24 0 5.733 2.4 5.763 5.365v7.465h-3.152l-.426-1.29h-.044c-.85.997-2.243 1.598-3.9 1.598-2.771 0-4.281-1.921-4.281-3.812 0-3.194 3.046-4.821 7.987-4.84h.15v-.131c0-.587-.469-1.73-2.742-1.73-1.335 0-2.797.45-3.683.964l-.056.033-.733-2.449.092-.052c.986-.542 2.723-1.121 5.026-1.121zm-9.985-3.812v4.164h2.405v2.844h-2.405v4.414c0 1.525.308 2.36 1.657 2.36.365 0 .663-.053.778-.096l.014-.006v2.889l-.199.073c-.441.16-.903.293-1.898.293-1.334 0-2.42-.484-3.05-1.158-.705-.749-1.043-1.977-1.055-3.603V31.935H9.897v-2.844h1.775v-4.164h3.753zm21.716 4.164v6.726c.03 1.873.724 2.98 2.272 2.98 1.24 0 1.998-.821 2.316-1.56l.016-.038c.095-.217.127-.46.131-.729v-7.364h3.828v12.463h-3.065l-.484-1.774c-.132.19-.307.41-.527.645-.203.216-.456.42-.76.612l-.076.048c-.323.205-.733.38-1.188.528-.454.146-.982.22-1.583.22-.675 0-1.305-.103-1.877-.308-.572-.206-1.056-.543-1.467-.983-.41-.44-.733-.997-.967-1.686-.226-.663-.343-1.447-.352-2.38v-7.4h3.783zM8.02 24.927v16.627H4.15V24.927h3.87zM27.61 35.645c-.264 0-.513 0-.762.015-.411.014-.792.044-1.144.102-1.496.235-2.493.836-2.493 2.01 0 1.04.733 1.598 1.804 1.598 1.217 0 2.14-.778 2.478-1.584.014-.015.014-.044.029-.059.015-.014.044-.102.044-.132.038-.18.055-.37.058-.553v-.077h-.014v-1.32zm16.496-10.718l-3.3 3.357H38.11l2.33-3.357h3.667z" transform="translate(.015 .015)"/>
    </g>
</svg>
