<svg xmlns="http://www.w3.org/2000/svg" width="255" height="185" viewBox="0 0 255 185">
    <g fill="none" fill-rule="evenodd">
        <ellipse cx="128" cy="179.5" fill="#89837F" fill-rule="nonzero" opacity=".67" rx="49" ry="5.5"/>
        <rect width="98" height="14" x="137" y="117" fill="#EFE9E6" fill-rule="nonzero" rx="7"/>
        <rect width="98" height="14" x="26" y="146" fill="#EFE9E6" fill-rule="nonzero" rx="7"/>
        <rect width="98" height="14" x="92" y="129" fill="#EFE9E6" fill-rule="nonzero" rx="7"/>
        <rect width="98" height="14" x="105" y="141" fill="#EFE9E6" fill-rule="nonzero" rx="7"/>
        <rect width="98" height="14" x="157" y="84" fill="#EFE9E6" fill-rule="nonzero" rx="7"/>
        <rect width="98" height="14" x="111" y="95" fill="#EFE9E6" fill-rule="nonzero" rx="7"/>
        <rect width="98" height="14" x="31" y="89" fill="#EFE9E6" fill-rule="nonzero" rx="7"/>
        <rect width="98" height="14" y="102" fill="#EFE9E6" fill-rule="nonzero" rx="7"/>
        <rect width="98" height="14" x="55" y="123" fill="#EFE9E6" fill-rule="nonzero" rx="7"/>
        <path fill="#D6D0CC" fill-rule="nonzero" d="M180 62l-.686 6.038-11.906 104.154c-.576 5.02-4.845 8.811-9.922 8.808h-56.972c-5.077.003-9.346-3.787-9.922-8.808L78.687 68.038 78 62h102z"/>
        <path fill="#89837F" fill-rule="nonzero" d="M180 62L179.313 68 78.687 68 78 62z"/>
        <path fill="#D6D0CC" fill-rule="nonzero" d="M182.362 63.894H75.981c-1.167 0-2.113-.872-2.113-1.947 0-1.075.946-1.947 2.113-1.947h106.381c1.167 0 2.113.872 2.113 1.947 0 1.075-.946 1.947-2.113 1.947z"/>
        <path fill="#89837F" fill-rule="nonzero" d="M131 78.2l-2 86.8-2-86.8c-.027-1.186.846-2.17 1.95-2.2 1.105-.029 2.022.908 2.05 2.093v.106zM158.98 78.43L147 165l7.529-87.03c.101-1.181 1.183-2.06 2.416-1.963 1.232.098 2.149 1.134 2.047 2.316-.003.035-.007.075-.012.107zM101.472 77.968L109 165 97.02 78.428c-.106-.76.22-1.516.854-1.983.635-.468 1.48-.575 2.22-.282.74.292 1.26.94 1.365 1.701.006.032.01.072.013.104z"/>
        <path d="M112.024 45L141 44.805 140.976 43 112 43.195z"/>
        <path fill="#56504C" fill-rule="nonzero" d="M151.702 28.415L158.336 32l2.383-4.402c.369-.74.375-1.606.016-2.35-.406-.866-1.086-1.577-1.935-2.024l-32.708-17.67c-.837-.464-1.804-.644-2.753-.512-.82.109-1.543.59-1.958 1.301L119 10.747l6.63 3.578.986-1.822 26.075 14.085-.989 1.827z"/>
        <path fill="#89837F" fill-rule="nonzero" d="M80 8.184L183.557 64 188 55.812l-9.605-5.178 2.338-4.306c.18-.366.183-.793.006-1.16-.201-.43-.537-.78-.958-1.003l-21.19-11.42-6.626-3.573-26.045-14.037-6.622-3.565L99.544.92c-.414-.229-.893-.317-1.363-.25-.408.052-.769.29-.975.642L94.867 5.62 84.443 0 80 8.184z"/>
        <path fill="#EFE9E5" fill-rule="nonzero" d="M40.34 10.916c2.919-1.09 6.056-3.025 7.64-2.911 1.584.114.17.514 1.981 1.712 1.812 1.198 1.189 1.199 2.32 1.598 1.131.4.96 1.026 1.982.514 1.022-.513 1.188-1.313 2.093-1.37.904-.057.792 1.198 1.868 1.484.95.294 1.82.801 2.547 1.484.396.4-.283 1.541 1.472 1.655 1.755.115 2.15.286 2.83 0 .678-.285 2.092-.57 2.32-.343.288.785.628 1.549 1.018 2.287.498.629.828 1.375.96 2.169 0 .399.283.685 1.415.513 1.132-.171.906-.228 2.32-.456 1.415-.229 1.246-1.027 1.981.967.735 1.994 2.548 1.997.96 3.025-.997.635-1.96 1.32-2.887 2.055-.385.327-.694.736-.905 1.198-.113.228-1.811.627 0 1.484 1.812.856 2.038-.914 2.604 1.084.566 1.998-.113 1.54.225 3.14.339 1.598.396 1.826 1.077 2.397.68.57.96-.967.792 1.143-.168 2.11-1.642 5.821-3.566 7.02-1.924 1.198 1.472 1.198-3.17 1.997-4.642.8-5.093.914-5.15 1.085-1.12.702-2.293 1.312-3.509 1.826-1.981.967 3.509 3.481-2.942 1.712-6.452-1.77-10.076-5.307-13.868-6.735-3.792-1.427-5.66-.285-4.36-3.253 1.3-2.968 7.244-6.393 5.263-8.39-1.98-1.997-4.301.286-6.454 0-2.152-.286-3.679-2.168-3.905-4.908-.227-2.74-.792-1.655.736-4.452 1.528-2.796 2.038-1.826 2.038-4.736 0-2.91.745-5.425 2.274-5.995z"/>
        <path fill="#D6D0CC" fill-rule="nonzero" d="M45.86 10.046c1.055-.165 2.131.118 2.967.78 1.4 1.119 2.912 2.513 3.136 3.293.225.781 2.071 1.897.224 2.288-1.847.39-2.016.782-2.52.28-.505-.503-1.904-3.461-2.52-2.735-.616.726-.784.946-.28 2.344.505 1.398 1.064 1.339 0 2.064-.916.634-1.914 1.14-2.967 1.507-1.288.502-1.68.945-2.744 2.287-1.064 1.342-1.735 2.568-2.016 1.34-.28-1.228-.172-6.753.616-8.092.787-1.34.728 2.79 1.007 3.46.28.67.504-.67 2.071-1.284 1.567-.613 1.792-1.172 1.288-2.679-.504-1.506-1.454-3.738 1.738-4.853z"/>
        <path fill="#89837F" fill-rule="nonzero" d="M58.506 21.169c-.395.05-4.506 4.983-4.506 4.983s4.9.401 6.646.453c1.114.059 2.224.176 3.323.352 1.128.1 1.239.1 1.97-.853.732-.954 2.31-4.378 2.028-4.63-.282-.252-2.366-.353-2.76.604-.394.957.902 3.22-1.295 3.17-2.196-.05-4.224-5.083-5.632-4.127"/>
        <path fill="#D6D0CC" fill-rule="nonzero" d="M54.164 19s1.621 3.39.348 4.747c-1.273 1.357-1.389 2.6-2.2 3.39-.81.791-1.04 1.356-2.198.227-1.222-.986-2.706-1.613-4.279-1.809-.347.113-1.389 1.356-1.62 0-.23-1.356-.578-2.826.81-3.391s1.736-1.244 4.05-1.696c1.728-.377 3.429-.868 5.09-1.468z"/>
        <path fill="#89837F" fill-rule="nonzero" d="M53.994 20.002s.057 2.475-.173 2.639c-.834.417-1.779.59-2.715.495-1.387-.11-2.137-.22-2.542-.66-.405-.439-1.099-1.1-1.676-.714-.655.48-1.204 1.078-1.618 1.759.018.646.175 1.282.462 1.869.277.475.299 1.047.057 1.54-.23.438-1.098.714-.23 1.429.867.715 2.483-1.76 1.501 1.868C46.078 33.855 45.444 36 45.444 36s.114-5.388-1.099-7.586c-1.213-2.198-1.675-2.254-1.098-3.464.578-1.21-.462-1.21.925-2.748 1.387-1.538 1.79-1.43 3.235-2.202 1.445-.773 1.158-.77 2.195-1.32 1.037-.549 1.56-1.154 3.062-.11 1.503 1.045 1.33 1.432 1.33 1.432z"/>
        <path fill="#D6D0CC" fill-rule="nonzero" d="M67.144 29.8s1.517-2.564 2.856-1.572c1.338.993 3.568 2.235 3.122 3.476-.446 1.241-1.07 1.075-.446 2.234.623 1.159 2.23 1.49 2.32 2.07.089.578-1.249 2.73-1.784 3.392-.536.662-1.428 1.159-3.3 1.159-1.872 0-3.034.993-4.194 0-1.16-.993-3.57-2.976-2.41-3.89 1.16-.915 1.07-.331 2.766-1.24 1.696-.91 2.052-.415 2.052-1.574 0-1.158-1.607-2.897-.982-4.055z"/>
        <path fill="#D6D0CC" fill-rule="nonzero" d="M64 33l-.29 2.751s-2.105 1.75-1.67 2.585c.436.834 1.306 1 1.161 2.585-.145 1.585-.145 2.335-1.088 2-.944-.333-1.668-1.25-2.104-1.333-.436-.083-.726 1.417-.726-1.167s-.725-2.998.146-2.998c.87 0 1.015.667 1.668-.25S62.334 33 64 33zM54.15 27s.707 6.418 1.415 7.311c.789.967 1.281 2.155 1.415 3.412 0 1.056-.08 2.112 0 2.843.08.73-.08 1.787-.55 2.03-.71.428-1.446.808-2.203 1.137-.707.244-1.1.488-1.887-.083-.599-.42-1.064-1.013-1.336-1.706-.081-.325 1.179-.083 2.202-.163 1.022-.079 2.359.163 2.201-1.949-.157-2.112.471-2.6-.393-3.737s-1.573-.162-1.415-1.95c.157-1.787-1.413-7.221.55-7.144z"/>
        <path fill="#FAF7F5" fill-rule="nonzero" d="M51.016 28.23s-2.633.25-1.757 2.08c.875 1.832.732 4.08 1.464 5.244.732 1.164 2.859 1.498 3.075 2.248.217.75.439 1.997-.366 2.164-.897.128-1.804-.108-2.563-.666-.586-.5-2.49-2.331-2.343-3.33.09-1.337.017-2.682-.22-3.995-.246-1.228-.344-2.488-.293-3.745.15-.5.809-2.498 3.003 0zM54 21.765c.337-1.072.49-2.183.455-3.295-.094-1.688-1.002-2.733 2.003-2.412 1.419.16 2.85.213 4.28.16 2.094.083 1.548-.16 2.55.083 1.001.244.819.322 1.183 2.412.364 2.09 1.183 4.18-.456 2.89-1.639-1.289-2.913-3.375-5.736-2.732-2.822.643-2.459 2.332-4.279 2.894zM56 27.055s.678 3.194.847 4.927c.169 1.733-.678 3.741.933 3.833 1.612.092 1.356.639 2.119-.73.629-1.211 1.657-2.123 2.881-2.555.763-.094 4.576 1.185 2.712-1.46-1.864-2.647-1.102-2.647-3.047-2.83-1.362-.028-2.72-.15-4.068-.365-.941-.272-.941-1.094-2.377-.82z"/>
    </g>
</svg>
